<svg width="290" height="318" viewBox="0 0 290 318" fill="none" xmlns="http://www.w3.org/2000/svg">
<g clip-path="url(#clip0_1_3)">
<path d="M94.7827 294.612C93.6966 294.656 92.5402 294.569 91.516 294.191C86.2146 292.232 72.6045 283.962 67.8763 280.609C67.4699 279.397 67.1084 278.164 67.0019 276.885C66.5232 271.06 66.2841 236.757 67.7007 232.908C69.9845 226.708 77.4808 225.761 77.5666 216.628C77.6374 209.462 72.0793 204.739 67.4512 200.037C66.5474 193.684 66.6885 186.896 67.3857 180.523C71.6165 175.651 88.2645 162.273 88.2955 157.231C88.3042 155.79 87.514 154.343 86.6583 153.225C84.4742 150.375 81.2933 147.958 78.7183 145.441C74.8696 141.677 71.2514 137.684 67.4047 133.912C63.8536 108.624 75.7595 114.079 77.6219 101.795C78.8335 93.8052 71.651 89.0189 67.4202 83.4448C66.6539 77.5729 66.8899 71.4701 66.8811 65.5557C66.8434 57.1931 66.8657 48.8305 66.9483 40.4679C67.0071 40.2675 67.069 40.0724 67.1429 39.8772L67.2514 39.5862C67.4786 38.9767 67.7213 38.3947 68.1345 37.8794C70.6662 34.7158 89.6966 23.7186 93.5659 23.4259C94.9706 23.3197 96.5728 23.5731 97.6609 24.5335C99.3254 26.0057 99.7004 29.2343 99.9054 31.3416C100.726 39.7591 100.052 48.7482 100.046 57.2289C100.033 77.9772 99.5594 98.8435 100.189 119.578C105.272 127.751 115.085 132.715 120.338 140.831C121.369 148.03 120.805 155.671 120.727 162.928C120.686 166.958 121.297 171.537 120.468 175.48C119.118 181.908 104.467 192.218 99.9018 198.862C100.816 212.015 100.055 227.066 100.057 240.393C100.057 256.991 100.74 273.924 99.8827 290.485C98.451 292.308 96.8449 293.58 94.7827 294.612Z" fill="white"/>
<path d="M196.951 294.669C195.048 294.739 193.326 294.588 191.883 293.214C190.433 291.832 190.241 289.68 190.048 287.794C189.057 278.08 189.835 267.643 189.83 257.84L189.807 198.378C184.699 192.842 179.085 187.946 173.832 182.575C171.928 180.629 170.2 178.434 169.445 175.779C167.912 170.381 168.886 148.587 168.98 141.59C173.741 134.217 185.547 126.445 188.829 120.072C189.564 118.646 189.773 117.038 189.879 115.455C190.367 108.251 189.876 100.772 189.873 93.5325L189.8 48.9239C189.764 42.5385 189.031 35.2989 190.088 29.0487C190.379 27.3266 190.841 25.2843 192.372 24.2349C193.733 23.3036 195.267 23.1136 196.868 23.4303C200.303 24.1099 216.33 33.6709 219.48 36.1497C220.609 37.0382 221.447 38.1251 222.263 39.2927C222.296 39.4006 222.332 39.5084 222.363 39.618C223.38 43.1959 223.112 80.2533 221.874 83.3689C220.213 87.5494 215.743 90.0914 213.478 93.9706C212.254 96.0642 211.796 98.3685 211.956 100.775C212.519 109.241 220.497 111.626 222.415 118.956C223.002 121.207 222.853 123.538 222.811 125.843C222.769 128.036 222.948 130.682 222.184 132.757C219.361 140.423 204.801 149.424 199.825 157.78C202.378 160.675 205.015 163.494 207.729 166.236C211.569 170.047 219.778 176.252 221.965 180.987C223.098 183.44 222.695 186.557 222.718 189.194C222.741 191.878 222.986 194.868 222.482 197.508C221.325 203.578 214.39 206.497 212.399 212.41C208.853 222.943 218.204 225.493 221.814 232.76C223.466 236.082 223.201 275.232 221.736 279.208C220.149 283.514 201.811 292.506 196.951 294.669Z" fill="white"/>
<path d="M53.4939 271.128C53.4164 271.13 53.3373 271.137 53.2579 271.137C48.9393 271.14 30.7682 260.143 27.3704 256.904L27.1604 256.702C26.8574 256.413 26.6303 256.189 26.4358 255.809C25.5923 254.162 25.5459 251.234 25.4736 249.404C24.9176 235.518 25.4082 221.411 25.4133 207.504C25.4168 200.999 24.5527 182.231 26.0364 176.935C27.5959 171.367 34.4878 169.165 36.283 163.244C39.9199 151.25 30.6064 150.161 26.7146 142.714C25.9383 141.23 25.7042 139.862 25.5768 138.218C24.8419 128.703 25.4615 118.709 25.4564 109.146C25.4512 100.794 24.3203 68.6097 26.3049 62.4914C27.6028 58.4925 48.0029 48.5121 52.5404 46.2575C54.9224 47.3653 56.6644 48.6079 58.441 50.5032C59.5044 55.2247 59.4909 79.7528 57.8006 83.512C54.9053 89.9539 48.1082 91.2414 47.8361 99.6604C47.6244 106.162 51.7849 109.209 55.7658 113.481C60.7196 118.794 58.8934 129.249 58.6698 136.055C64.7769 143.735 72.4003 150.757 79.6173 157.404C72.7117 164.017 64.6613 170.931 59.0277 178.638C58.6714 185.727 59.7869 193.485 57.9674 200.384C54.8831 203.933 51.1496 206.477 49.1117 210.909C43.3455 223.457 55.7626 226.196 58.1446 233.013C59.4373 236.706 59.4631 264.75 58.0485 267.544C58.0191 267.602 57.9865 267.66 57.9571 267.718C57.1173 269.344 55.038 270.247 53.4939 271.128Z" fill="white"/>
<path d="M237.901 271.089C235.733 271.125 233.78 270.294 232.209 268.802C230.355 267.044 230.281 263.601 230.21 261.194C230.047 255.725 229.224 236.824 231.494 232.525C233.087 229.512 236.043 227.489 238.359 225.053C240.829 222.456 241.93 219.373 241.817 215.815C241.618 209.601 238.133 207.062 234.057 203.164C228.153 197.522 230.344 185.775 230.184 178.258C226.138 171.333 213.364 163.204 211.008 157.419C211.047 155.137 227.32 140.156 230.079 136.789C230.506 132.237 230.114 127.572 230.138 123.001C230.169 117.203 232.472 114.911 236.367 111.05C239.625 107.823 241.801 104.657 241.775 99.8564C241.742 93.6661 238.037 91.006 234.057 87.0275C232.718 85.6903 231.592 84.3276 231.005 82.4995C229.175 76.8042 230.229 59.4418 230.25 52.4831C231.944 49.2391 233.503 48.0733 236.611 46.2328C242.328 48.6894 257.155 56.5591 261.57 60.4641C263.454 62.1297 263.539 64.4268 263.661 66.7911C264.261 78.3242 263.704 90.1741 263.718 101.738C263.726 109.124 264.721 136.289 263.155 141.675C262.112 145.264 258.256 147.769 255.845 150.47C251.5 155.284 251.407 162.549 255.624 167.473C257.728 169.931 260.721 171.755 262.396 174.569C263.413 176.279 263.556 178.184 263.663 180.119C264.317 191.868 263.694 203.947 263.709 215.728C263.723 227.367 264.403 239.405 263.62 251.003C263.515 252.578 263.392 255.413 262.298 256.608C262.249 256.661 262.201 256.712 262.153 256.764C257.626 261.727 244.374 268.656 237.901 271.089Z" fill="white"/>
<path d="M159.729 135.266C156.705 135.345 152.054 135.989 149.37 134.532C149.051 134.359 148.907 134.032 148.836 133.686C147.958 129.438 148.192 103.028 148.797 97.6169C148.919 96.5368 149.182 95.559 149.736 94.6126L149.876 94.3796C151.936 90.8804 155.855 88.9804 157.835 85.4915C159.006 83.4285 159.417 81.1588 159.469 78.8167C159.691 68.6944 151.043 68.0508 149.127 60.4788C147.96 55.8654 148.239 15.1634 148.679 8.31749C148.786 6.63467 148.871 4.37155 149.774 2.91644C150.781 1.2987 152.615 0.632784 154.375 0.184267C154.593 0.102103 154.682 0.0524322 154.901 0.0233335C156.237 -0.149565 157.344 0.66873 158.294 1.47503C158.349 1.46133 158.404 1.44081 158.46 1.43224C160.292 1.17888 174.801 10.0465 176.982 11.4605C178.819 12.6503 181.006 13.953 181.457 16.199C182.442 21.1003 182.01 26.6314 182.012 31.6301L182.018 54.5748L182.013 92.5169C182.01 99.4454 182.285 106.509 181.858 113.421C181.77 114.847 181.573 116.151 180.755 117.363L180.595 117.598C180.414 117.864 180.235 118.125 180.044 118.384C177.627 121.645 167.285 132.172 163.756 134.224C162.582 134.907 161.058 135.071 159.729 135.266Z" fill="white"/>
<path d="M154.563 318C152.323 317.798 151.205 316.656 149.629 315.213C149.288 313.934 148.954 312.623 148.803 311.307C148.164 305.767 148.083 260.624 149.286 257.099C150.607 253.229 154.363 250.839 156.813 247.745C160.394 243.224 160.642 235.759 156.98 231.197C154.888 228.588 151.822 226.821 150.112 223.88C149.231 222.363 148.995 220.45 148.811 218.731C148.465 215.49 148.006 185.945 148.861 184.34C149.023 184.039 149.386 183.7 149.61 183.428C152.955 181.807 159.833 182.517 163.439 183.368C167.187 185.979 176.954 195.471 179.8 199.361C180.738 200.642 181.511 201.891 181.707 203.493C182.364 208.911 182.022 214.658 182.022 220.124L182.017 249.108L182.031 281.48C182.031 287.984 182.473 294.91 181.473 301.345C181.328 302.285 181.148 302.944 180.519 303.688C177.302 307.496 159.418 317.473 154.563 318Z" fill="white"/>
<path d="M137.624 135.275C134.781 135.309 131.474 135.71 128.684 135.249C124.326 134.53 110.256 119.914 107.719 116.242C107.129 111.324 107.373 106.22 107.383 101.27L107.42 78.7412C107.442 59.8178 106.829 40.7183 107.382 21.8225C107.439 19.8487 107.447 17.4246 108.151 15.5586C109.516 11.9413 121.013 6.30237 124.691 4.5699C126.641 3.12507 129.199 1.64942 131.497 0.81744C133.426 0.117282 135.556 -0.146337 137.456 0.790065C138.334 1.22146 139.606 2.1767 139.907 3.13535C141.365 7.76946 141.511 58.9055 139.767 62.1738L139.649 62.3892C136.59 68.0659 130.65 69.7708 129.913 77.0757C129.101 85.1012 133.946 87.0748 138.175 92.3389C139.181 93.5902 139.915 94.8328 140.236 96.418C141.327 101.831 141.268 127.873 140.594 133.905C139.635 135.057 139.065 134.967 137.624 135.275Z" fill="white"/>
<path d="M136.818 317.817C136.599 317.839 136.383 317.855 136.162 317.863C134.869 317.916 133.592 317.887 132.356 317.471C127.139 315.72 113.777 308.141 109.811 304.421C107.31 302.078 107.527 298.15 107.465 294.934C107.274 285.114 106.722 205.01 107.975 201.863C109.682 197.58 120.55 188.771 124.263 184.921C125.062 184.188 126.139 183.563 127.029 182.928C131.573 182.731 136.121 182.649 140.668 182.683C141.088 188.861 141.603 218.427 139.716 222.862C137.198 228.778 130.363 231.45 129.697 238.573C129.004 245.996 135.887 250.784 140.13 255.776C141.173 261.557 141.495 308.888 140.335 314.02C139.882 316.014 138.422 316.769 136.818 317.817Z" fill="white"/>
<path d="M279.686 247.46C278.903 247.504 278.111 247.533 277.328 247.477C274.806 247.293 273.613 245.554 272.073 243.793C271.39 235.971 271.136 180.56 272.538 176.139C274.173 170.984 280.063 168.644 281.729 163.066C285.079 151.857 277.147 150.888 273.34 143.818C272.596 142.437 272.179 141.105 272.024 139.544C271.267 131.98 271.26 77.9871 272.703 73.2724C273.486 72.5807 274.328 71.7833 275.291 71.3501C277.429 70.3881 280.261 70.9991 282.38 71.7968C284.948 72.764 287.805 74.6422 288.908 77.2509C289.74 79.2178 289.643 82.3711 289.691 84.4839C290.298 111.14 289.696 137.934 289.704 164.606C289.71 188.449 290.399 212.53 289.654 236.343C289.614 237.611 289.549 238.909 289.031 240.088C287.301 244.019 283.479 245.962 279.686 247.46Z" fill="white"/>
<path d="M13.39 247.545C10.049 247.504 6.87332 246.607 4.17095 244.611C2.34813 243.267 0.780064 241.311 0.494335 239.015C-0.32498 232.412 0.122557 225.282 0.117393 218.63C0.0657574 205.429 0.112222 192.227 0.256808 179.026L0.115669 113.417C0.112228 103.154 -0.096034 92.8381 0.217236 82.5822C0.274037 80.7334 0.0829684 77.8027 1.28785 76.2997C1.33604 76.2397 1.38597 76.1817 1.43417 76.1216C2.03144 75.3736 2.6339 74.699 3.3792 74.0912C6.17625 71.8127 9.88725 70.3269 13.5053 70.7053C14.7894 71.265 16.0115 71.9376 16.755 73.1599C17.5469 74.4629 17.7896 76.1165 17.886 77.6178C18.2405 83.1471 17.7982 88.947 17.8085 94.516C17.824 103.243 18.8309 136.054 17.1578 141.865C15.5071 147.595 8.57049 149.737 7.21413 156.007C5.07635 165.902 12.1937 167.729 16.3884 174.362C17.4677 176.068 17.6828 178.172 17.8171 180.143C18.6278 192.088 17.7999 204.645 17.7603 216.64C17.7362 223.669 18.8361 236.644 17.4247 242.742C16.8291 245.311 15.5106 246.229 13.39 247.545Z" fill="white"/>
<path d="M159.687 175.245C153.486 175.014 133.523 175.925 129.003 174.398C128.723 173.822 128.528 173.232 128.432 172.597C127.797 168.447 128.449 163.864 128.447 159.665C128.445 154.993 127.864 150.13 128.351 145.483C128.445 144.578 128.74 143.888 129.277 143.16C132.551 142.407 156.532 142.719 160.089 143.455C160.526 144.289 160.69 145.107 160.789 146.036C161.144 149.354 161.665 172.11 160.666 174.043C160.471 174.421 159.966 174.904 159.687 175.245Z" fill="white"/>
</g>
<defs>
<clipPath id="clip0_1_3">
<rect width="290" height="318" fill="white"/>
</clipPath>
</defs>
</svg>
